<?xml version="1.0" encoding="UTF-8"?>
<svg version="1.1" viewBox="0 0 2048 2048" width="512" height="512" xmlns="http://www.w3.org/2000/svg">
<!-- <path transform="translate(0)" d="m0 0h2048v2048h-2048z" fill="#FDFDFD"/> -->
<path transform="translate(916,288)" d="m0 0h4l3 11 8 61 5 47 5 58v12l-9 2-31 6-36 9-36 12-29 12-20 9-19 10-24 14-19 12-16 11-16 12-13 10-13 11-13 12-8 7-23 23-9 11-11 12-11 14-15 20-10 15-13 21-9 16-9 17-11 23-12 28-12 35-8 28-8 38-5 34-3 34v57l3 37 4 29 7 34 4 16 7 25 10 29 12 29 12 26 13 23 10 17 20 30 10 13 11 14 11 13 9 11 15 15v2l4 2v2l4 2 5 5h92l379-1 49-1 22-1-3-10-16-50-14-41-14-44-11-31-5-15v-3l-257 1h-150l-3-1 3-9 12-29 9-21 2-4h-29l2-6 11-26 13-30 18-41 13-29 14-30 7-16 7-14 11-23 14-29 22-45 40-80 10-19 18-35 12-23 12-22 15-28 25-45 14-24 13-23 13-21 15-24h3l7 10 13 21 10 17 14 24 15 26 10 18 14 26 12 22 13 24 12 23 10 19 15 29 16 32 12 23 14 28 11 23 25 50 15 33 13 27 16 36 14 30 11 25 14 33 15 36 12 30 14 39 11 32 11 29 14 40 16 48 3 11 12-12 11-14 9-11 12-17 11-16 17-28 12-21 14-31 11-27 12-36 8-30 7-34 5-35 2-21 1-21v-36l-1-22-4-35-6-36-8-34-9-30-12-34-13-30-12-22-9-17-12-19-10-15-12-17-10-13-11-13-9-11-16-17-11-12-8-7-8-8-8-7-13-11-14-11-16-12-15-10-19-12-24-14-25-13-32-14-27-10-33-10-37-9-1-1v-12l4-44 6-50 7-44 7-35 3-8 20 3 28 6 36 10 36 12 31 12 26 11 29 14 20 10 24 14 26 16 12 8 16 11 21 16 13 10 13 11 10 8 10 9 10 10 8 7 16 16 7 6 7 8 16 17 9 11 11 13 8 10 12 16 13 18 19 29 13 21 14 25 14 27 18 41 9 23 16 47 10 38 8 36 6 36 4 33 3 35 1 29v31l-2 36-5 49-6 37-8 37-11 41-13 40-8 21-5 12-12 27-18 36-7 13h-2l-1 5-7 14-9 12-9 10-5 6-8 7-12 11-13 10-14 10-23 15-24 14-23 12-17 9-45 20h-3l5 47 1 20v15l-5 6-13 9-17 12-19 12-15 9-27 15-27 14-28 13-32 13-28 10-29 9-38 10-33 7-36 6-32 4-40 3h-67l-44-3-38-5-29-5-33-7-31-8-29-9-37-13-38-16-28-13-23-12-24-14-22-13-10-7-16-11-14-10-16-12-14-11-13-11-10-9-8-7-10-9-8-8-8-7-8-8-7-8-10-10-7-8-12-14-9-11-13-16-5-8-1-3v-7l4-6 7-6 13-8h2l-2-4-12-8-16-12-14-12-8-7-17-17-9-11-13-17-9-15-9-17v-3h-2l-10-23-16-47-13-43-9-36-7-34-6-38-3-31-1-17v-67l3-41 4-32 5-30 7-34 9-36 9-29 11-31 14-34 10-23 8-16 14-27 16-27 12-19 8-12 10-14 11-15 11-14 9-11 14-17 9-10 11-12 10-10 7-8 13-12 11-11 11-9 12-11 14-11 12-10 20-15 16-11 12-8 22-14 23-13 26-14 27-13 27-12 34-13 37-12 28-7 39-7 28-4z" fill="#4186F9"/>
<path transform="translate(1157,288)" d="m0 0 20 3 28 6 36 10 36 12 31 12 26 11 29 14 20 10 24 14 26 16 12 8 16 11 21 16 13 10 13 11 10 8 10 9 10 10 8 7 16 16 7 6 7 8 16 17 9 11 11 13 8 10 12 16 13 18 19 29 13 21 14 25 14 27 18 41 9 23 16 47 10 38 8 36 6 36 4 33 3 35 1 29v31l-2 36-5 49-6 37-8 37-11 41-13 40-8 21-5 12-12 27-18 36-7 13h-2l-1 5-7 14-9 12-9 10-5 6-8 7-12 11-13 10-14 10-23 15-24 14-23 12-17 9-36 16-13 5-4-21-7-36-16-64-8-27-2-6 1-7 10-11 11-14 9-11 12-17 11-16 17-28 12-21 14-31 11-27 12-36 8-30 7-34 5-35 2-21 1-21v-36l-1-22-4-35-6-36-8-34-9-30-12-34-13-30-12-22-9-17-12-19-10-15-12-17-10-13-11-13-9-11-16-17-11-12-8-7-8-8-8-7-13-11-14-11-16-12-15-10-19-12-24-14-25-13-32-14-27-10-33-10-37-9-1-1v-12l4-44 6-50 7-44 7-35z" fill="#4186F9"/>
<path transform="translate(916,288)" d="m0 0h4l3 11 8 61 5 47 5 58v12l-9 2-31 6-36 9-36 12-29 12-20 9-19 10-24 14-19 12-16 11-16 12-13 10-13 11-13 12-8 7-23 23-9 11-11 12-11 14-15 20-10 15-13 21-9 16-9 17-11 23-12 28-12 35-8 28-8 38-5 34-3 34v57l3 37 4 29 7 34 4 16 7 25 10 29 12 29 12 26 13 23 10 17 20 30 10 13 11 14 11 13 9 11 15 15v2l4 2v2l4 2 4 6-58 1-28 2-45 7-29 7-20 6-15 5-5-1-20-14-14-11-15-13-19-19-9-11-13-17-9-15-9-17v-3h-2l-10-23-16-47-13-43-9-36-7-34-6-38-3-31-1-17v-67l3-41 4-32 5-30 7-34 9-36 9-29 11-31 14-34 10-23 8-16 14-27 16-27 12-19 8-12 10-14 11-15 11-14 9-11 14-17 9-10 11-12 10-10 7-8 13-12 11-11 11-9 12-11 14-11 12-10 20-15 16-11 12-8 22-14 23-13 26-14 27-13 27-12 34-13 37-12 28-7 39-7 28-4z" fill="#4186F9"/>
<path transform="translate(918,289)" d="m0 0 3 1 3 16 8 63 5 49 4 47v12l-9 2-31 6-36 9-36 12-29 12-20 9-19 10-24 14-19 12-16 11-16 12-13 10-13 11-13 12-8 7-23 23-9 11-11 12-11 14-15 20-10 15-13 21-9 16-9 17-11 23-12 28-12 35-8 28-8 38-5 34-3 34v57l3 37 4 29 7 34 4 16 7 25 10 29 12 29 12 26 13 23 10 17 20 30 10 13 11 14 11 13 9 11 15 15v2l4 2v2l4 2 4 6-58 1-28 2-45 7-29 7-20 6-15 5-5-1-20-14-14-11-15-13-19-19-9-11-13-17-9-15-9-17-4-11-1-17v-27l5-40 7-39 10-45 10-37 12-40 9-29 15-42 12-32 10-25 22-52 10-22 13-28 9-19 9-17 11-23 12-21 9-16 6-12 18-30 13-22 12-19 7-10 40-60 10-14 8-12 26-36 8-11 6-9h2l2-4 8-11 9-11 12-16 11-14 10-11 8-10 11-13 11-12 9-9 7-8 34-34 15-14 14-11 11-9 18-13 15-9 23-12 21-9z" fill="#222D40"/>
<path transform="translate(1157,288)" d="m0 0 5 1 3 5 16 10 16 12 13 11 11 10 8 7 28 28v2h2l9 11 10 11 9 11 8 9 11 14 13 16 15 20 10 13 13 18 12 17 16 23 14 22 10 15 14 22 16 27 17 28 14 25 14 24 8 17 12 22 10 19 8 16 15 31 9 20 13 29 13 30 13 33 11 29 13 36 21 64 12 41 15 57 12 54 7 39 7 46 4 40v58l-3 20-5 12-7 11-10 13-10 11-8 7-12 11-13 10-14 10-23 15-24 14-23 12-17 9-36 16-13 5-4-21-7-36-16-64-8-27-2-6 1-7 10-11 11-14 9-11 12-17 11-16 17-28 12-21 14-31 11-27 12-36 8-30 7-34 5-35 2-21 1-21v-36l-1-22-4-35-6-36-8-34-9-30-12-34-13-30-12-22-9-17-12-19-10-15-12-17-10-13-11-13-9-11-16-17-11-12-8-7-8-8-8-7-13-11-14-11-16-12-15-10-19-12-24-14-25-13-32-14-27-10-33-10-37-9-1-1v-12l4-44 6-50 7-44 7-35z" fill="#222D40"/>
<path transform="translate(1287,539)" d="m0 0 5 2 27 16 15 10 17 12 13 10 17 14 11 10 8 7 8 8 8 7 11 12 13 14 9 11 11 13 8 11 12 17 10 15 13 21 15 28 8 16 12 28 13 38 10 37 7 34 5 35 2 20 1 22v36l-2 32-4 33-6 33-7 29-10 33-7 19-9 22-2-4-7-49-12-67-13-59-14-56-12-43-16-52-13-38-11-30-15-40-13-32-12-29-16-37-9-20-15-31-11-23-10-20-24-44-11-18-6-10z" fill="#9F9CBD"/>
<path transform="translate(761,536)" d="m0 0 2 1-4 5-18 27-12 20-7 11-11 18-10 17-8 14-9 16-16 29-18 35-10 19-16 32-13 28-9 19-15 34-15 37-12 30-11 29-20 59-13 42-12 43-15 60-1 7h-1l-4-16-7-34-5-38-2-28v-57l4-42 6-36 7-31 7-25 12-35 13-30 8-17 10-19 8-15 13-21 8-12 10-14 10-13 13-16 9-10 9-11 29-29 8-7 10-9 16-13 16-12 17-12 17-11 15-9z" fill="#9F9CBD"/>
<path transform="translate(736,1166)" d="m0 0h384l3 6 6 19 10 29 10 28 15 44 12 36 16 49 11 36 2 9-2 2h-20l-1-6-12-36-14-43-24-72-12-35v-3l-257 1h-150l-3-1 3-9 12-29 9-21z" fill="#A09DBD"/>
</svg>
