<?xml version="1.0" encoding="UTF-8"?>
<svg version="1.1" viewBox="0 0 2048 1116" width="1280" height="698" xmlns="http://www.w3.org/2000/svg">
<path transform="translate(0)" d="m0 0h2048v1116h-2048z" fill="#FFFFFE"/>
<path transform="translate(691,428)" d="m0 0h23l14 1 1 47 77 1v39l-77 1v128l1 14 4 13 6 8 8 5 6 2h18l12-3 5-2h4l14 41-3 3-16 6-14 3-9 1h-12l-19-3-14-5-12-7-8-7-9-12-7-14-4-16-2-22v-130l1-4h-131l-20 4-16 6-14 8-11 9-7 6-11 7-10 10-7 11-5 11-4 16v21l4 18 7 14 8 10 8 7 12 7 12 4 5 1h19l17-4 15-8 10-9 7-10 6-13 4-16v-24l-4-15-8-16-11-12-11-8-12-5-20-4 4-3 16-7 19-4h34l9 1 8 8 10 15 8 16 5 16 3 16v30l-4 20-6 17-7 13-8 11-9 10-8 8-16 11-17 8-13 4-19 3h-22l-17-3-21-7-16-9-10-8-9-8-9-11-7-11-8-16-5-16-3-18v-28l3-17 6-18 10-19 10-13 11-12 13-11 19-12 17-8 18-6 24-5 19-2 122-1 13 1v-32l1-16z" fill="#010000"/>
<path transform="translate(1512,489)" d="m0 0h25l22 3 17 5 16 8 12 9 7 7 10 15 6 15 3 12 2 17v151h-45l2-13 2-19-1-21-4-15-8-16-8-10-13-9-13-5-14-3h-24l-12 3-10 5-6 5-5 8-3 12 1 12 4 9 6 8 10 6 10 3 8 1h10l14-2 12-4 13-7 12-11 4-2 4 18 1 16-3 6-9 10-13 9-10 5-14 4-12 2h-22l-17-3-12-4-12-6-13-10-9-11-8-16-4-16v-25l4-16 8-16 11-12 11-8 14-7 19-5 7-1h31l17 3 12 4 12 6 9 7 6 6v-22l-2-14-4-11-7-9-8-6-11-5-15-3h-29l-20 4-17 6-11 5-7-15-11-25 3-3 21-9 20-6 18-3z" fill="#010000"/>
<path transform="translate(1095,489)" d="m0 0h29l17 3 15 5 16 8 13 10 9 8 9 11 9 14 7 15 5 16 3 16 1 22-1 14-61 1h-60l-24-1-16-4-10-4-13-9-9-9-10-15-5-13-3-14v-17l3-15 6-9 10-9 15-10 18-8 15-4z" fill="#010000"/>
<path transform="translate(1e3 558)" d="m0 0h1l5 25 7 16 7 11 14 14 4 3 5 17 7 13 8 10 11 9 16 8 12 3 7 1h17l15-3 14-5 14-9 11-9h4l22 22 7 8v4l-9 9-13 10-16 9-19 7-20 4-12 1h-14l-18-2-19-5-15-6-15-9-11-9-10-10-11-15-8-16-6-18-3-16-1-12v-11l2-18 4-16 5-14z" fill="#010000"/>
<path transform="translate(1267,496)" d="m0 0h33l3 9 9 39 4 27 1 10v150h-50z" fill="#010000"/>
<path transform="translate(838,496)" d="m0 0h31l6 19 7 30 4 24 2 19v143h-50z" fill="#010000"/>
<path transform="translate(1105,535)" d="m0 0h9l14 2 16 6 10 7 11 11 6 10 5 15 1 6h-92l-14-3-10-5-7-7-3-6 1-5 6-9 10-9 12-7 16-5z" fill="#FFFFFE"/>
<path transform="translate(950,490)" d="m0 0h17l15 3 1 2-9 48-9-1h-14l-16 4-11 6-13 11-8 10-1 2h-2l-2-12-4-23-2-9v-5l8-10 10-10 11-7 11-5 11-3z" fill="#010000"/>
<path transform="translate(1385,490)" d="m0 0 17 1 11 3-1 10-7 39-9-1h-15l-16 4-11 6-11 9-10 11-3 3-1-2-3-23-4-20 1-5 8-10 11-10 14-8 15-5z" fill="#010000"/>
<path transform="translate(1060,403)" d="m0 0 9 3 29 14 28 13 35 17 1 4-11 24-20-9-35-17-23-11-25-12 2-5 9-20z" fill="#010000"/>
</svg>
